<svg width="150" height="150" viewBox="0 0 150 150" fill="none" xmlns="http://www.w3.org/2000/svg">
<path d="M75 128.201C103.319 128.201 126.276 119.195 126.276 108.086C126.276 96.9767 103.319 87.9708 75 87.9708C46.6809 87.9708 23.7236 96.9767 23.7236 108.086C23.7236 119.195 46.6809 128.201 75 128.201Z" fill="#FFECE5"/>
<path d="M54.4528 47.9069L52.4306 60.5875H45.8583L47.8806 47.9069H54.4528Z" fill="#FFECE5"/>
<path d="M87.1347 61.0111C87.5722 61.0111 87.8722 61.3528 87.8042 61.775C87.7375 62.1972 87.3292 62.5403 86.8903 62.5403H61.2028C60.7653 62.5403 60.4639 62.1972 60.5319 61.775C60.5986 61.3528 61.0083 61.0111 61.4458 61.0111H87.1347Z" fill="#CC400C"/>
<path d="M89.2695 51.9541H104.235L101.99 66.0277L101.101 71.6027H61.7181C60.2834 71.6027 59.1764 70.675 59.0181 69.3375L58.8959 68.2916C58.7375 66.9555 57.6306 66.0264 56.1959 66.0264H44.9917L45.6153 62.1125H53.7723L56.282 46.3764H48.125L49.5778 37.2639H91.3514L91.5709 37.5139L89.2695 51.9541ZM87.7084 57.4166C88.1459 57.4166 88.5542 57.075 88.6209 56.6527C88.6875 56.2305 88.3889 55.8875 87.9514 55.8875H62.2625C61.825 55.8875 61.4153 56.2305 61.3473 56.6527C61.2806 57.075 61.5806 57.4166 62.0181 57.4166H87.7084ZM86.8917 62.5389C87.3292 62.5389 87.7375 62.1958 87.8056 61.7736C87.8723 61.3514 87.5736 61.0097 87.1361 61.0097H61.4459C61.0084 61.0097 60.5986 61.3514 60.532 61.7736C60.4653 62.1958 60.7653 62.5389 61.2028 62.5389H86.8917ZM86.075 67.6583C86.5125 67.6583 86.9209 67.3166 86.9875 66.8944C87.0542 66.4722 86.7556 66.1291 86.3181 66.1291H60.6292C60.1917 66.1291 59.782 66.4722 59.7139 66.8944C59.6473 67.3166 59.9473 67.6583 60.3848 67.6583H86.075Z" fill="#FFECE5"/>
<path d="M86.3181 66.1306C86.7556 66.1306 87.0542 66.4736 86.9875 66.8958C86.9208 67.3181 86.5125 67.6597 86.075 67.6597H60.3861C59.9486 67.6597 59.6472 67.3181 59.7153 66.8958C59.7819 66.4736 60.1917 66.1306 60.6306 66.1306H86.3181Z" fill="#CC400C"/>
<path d="M86.3181 66.1306C86.7556 66.1306 87.0542 66.4736 86.9875 66.8958C86.9208 67.3181 86.5125 67.6597 86.075 67.6597H60.3861C59.9486 67.6597 59.6472 67.3181 59.7153 66.8958C59.7819 66.4736 60.1917 66.1306 60.6306 66.1306H86.3181Z" fill="#CC400C"/>
<path d="M114.525 72.0611C114.524 72.0181 114.519 71.975 114.515 71.932C114.513 71.907 114.511 71.8806 114.508 71.8556C114.503 71.8084 114.494 71.7611 114.486 71.7139C114.483 71.6973 114.482 71.6806 114.478 71.6639C114.478 71.6611 114.476 71.6584 114.475 71.6542C114.465 71.6042 114.453 71.5542 114.44 71.5056C114.438 71.4931 114.435 71.4792 114.431 71.4667C114.414 71.4056 114.394 71.3445 114.372 71.2847C114.372 71.2834 114.371 71.282 114.371 71.2806C114.369 71.2778 114.368 71.275 114.367 71.2709C114.333 71.1806 114.296 71.0945 114.253 71.0097C114.249 71.0028 114.247 70.9945 114.243 70.9875C114.242 70.9834 114.239 70.9806 114.236 70.9764C114.197 70.9028 114.156 70.8306 114.11 70.7611C114.106 70.7542 114.101 70.7472 114.097 70.7403C114.076 70.7097 114.056 70.6792 114.035 70.65L111.422 67.0875C111.449 67.1236 111.474 67.1611 111.497 67.1986C111.543 67.2681 111.585 67.3403 111.624 67.4139C111.629 67.425 111.635 67.4361 111.64 67.4472C111.682 67.532 111.721 67.6195 111.754 67.7084C111.756 67.7125 111.758 67.7167 111.76 67.7222C111.781 67.782 111.8 67.8431 111.818 67.9042C111.822 67.9167 111.824 67.9306 111.828 67.9431C111.84 67.9917 111.853 68.0417 111.863 68.0917C111.867 68.1111 111.869 68.1306 111.872 68.15C111.881 68.1972 111.888 68.2431 111.894 68.2917C111.897 68.3167 111.899 68.3431 111.901 68.3681C111.906 68.4111 111.908 68.4542 111.911 68.4972C111.913 68.525 111.913 68.5528 111.913 68.5806C111.913 68.6222 111.913 68.6653 111.911 68.707C111.91 68.7347 111.91 68.7639 111.907 68.7931C111.904 68.8361 111.9 68.8792 111.896 68.9236C111.893 68.9514 111.89 68.9792 111.886 69.0084C111.879 69.0556 111.872 69.1014 111.863 69.1486C111.858 69.1736 111.854 69.1986 111.849 69.2236C111.836 69.2847 111.821 69.3459 111.804 69.407C111.801 69.4181 111.799 69.4292 111.796 69.4417C111.775 69.5139 111.751 69.5875 111.725 69.6597C111.717 69.682 111.707 69.7042 111.699 69.7264C111.679 69.7778 111.658 69.8292 111.636 69.8792C111.61 69.9375 111.583 69.9959 111.554 70.0556L92.8111 107.033L92.7167 106.906C92.6834 106.982 92.6472 107.056 92.6084 107.129C92.6056 107.135 92.6028 107.139 92.6014 107.144C92.5639 107.215 92.5236 107.283 92.482 107.351C92.425 107.443 92.3653 107.531 92.3014 107.617C92.2834 107.642 92.2639 107.664 92.2458 107.688C92.2028 107.742 92.1597 107.796 92.1139 107.849C92.0903 107.876 92.0653 107.903 92.0403 107.929C91.9986 107.974 91.9556 108.018 91.9111 108.061C91.8847 108.086 91.8597 108.113 91.8334 108.136C91.7861 108.179 91.7375 108.221 91.6889 108.263C91.6639 108.283 91.6403 108.304 91.6153 108.325C91.5403 108.386 91.4625 108.444 91.382 108.499C91.2986 108.556 91.2125 108.608 91.125 108.66C91.1014 108.674 91.0764 108.686 91.0514 108.7C90.9764 108.742 90.9 108.781 90.8222 108.817C90.7917 108.832 90.7597 108.846 90.7292 108.86C90.7 108.872 90.6709 108.885 90.6417 108.896C90.5945 108.915 90.5472 108.933 90.5 108.95C90.4695 108.961 90.4403 108.971 90.4097 108.982C90.3625 108.997 90.3153 109.013 90.2681 109.025C90.2347 109.035 90.2028 109.044 90.1695 109.053C90.1208 109.065 90.0709 109.076 90.0209 109.088C89.9889 109.094 89.957 109.101 89.9264 109.108C89.8722 109.118 89.8167 109.126 89.7611 109.133C89.7347 109.138 89.707 109.142 89.6806 109.144C89.5986 109.154 89.5153 109.161 89.4333 109.164L92.0458 112.726C92.05 112.726 92.0542 112.725 92.0584 112.725L92.0597 112.726C92.0681 112.726 92.0764 112.726 92.0861 112.726C92.125 112.726 92.1625 112.725 92.2014 112.724C92.2181 112.722 92.2347 112.719 92.2514 112.719C92.3347 112.715 92.4181 112.707 92.5 112.696C92.525 112.693 92.5486 112.69 92.5736 112.688C92.6792 112.672 92.7833 112.651 92.8875 112.625C92.9125 112.619 92.9361 112.611 92.9597 112.606C93.0139 112.59 93.0695 112.578 93.1236 112.56C93.1528 112.55 93.182 112.539 93.2111 112.529C93.2334 112.522 93.2542 112.514 93.2764 112.507C93.3667 112.474 93.4556 112.439 93.5431 112.4C93.5486 112.397 93.5542 112.393 93.5611 112.392C93.5667 112.389 93.5736 112.388 93.5806 112.383C93.5806 112.383 93.5806 112.382 93.5792 112.382C93.5792 112.382 93.5792 112.383 93.5806 112.383C93.6778 112.339 93.7722 112.289 93.8653 112.236C93.8681 112.235 93.8695 112.233 93.8722 112.232C93.9 112.217 93.925 112.199 93.9514 112.182C94.0139 112.144 94.0764 112.107 94.1375 112.065C94.1431 112.063 94.1472 112.06 94.1528 112.056C94.1903 112.031 94.225 112.001 94.2611 111.974C94.3042 111.942 94.3472 111.913 94.3875 111.879C94.3931 111.875 94.3972 111.872 94.4028 111.868C94.4417 111.838 94.4764 111.803 94.5139 111.771C94.5459 111.743 94.5792 111.717 94.6097 111.688C94.6167 111.681 94.6236 111.675 94.6306 111.668C94.632 111.667 94.632 111.667 94.6333 111.665C94.6347 111.664 94.6347 111.664 94.6361 111.663C94.6445 111.656 94.6528 111.647 94.6597 111.64C94.6778 111.624 94.6917 111.604 94.7097 111.588C94.757 111.54 94.8056 111.493 94.85 111.443C94.8625 111.429 94.8736 111.414 94.8861 111.4C94.8959 111.389 94.9083 111.378 94.9181 111.367C94.9278 111.356 94.9375 111.343 94.9472 111.332C94.9792 111.293 95.0097 111.254 95.0403 111.214C95.0458 111.207 95.0528 111.2 95.0583 111.192C95.0597 111.189 95.0611 111.186 95.0639 111.183C95.1278 111.099 95.1875 111.01 95.2445 110.919C95.25 110.91 95.257 110.901 95.2625 110.893C95.2681 110.885 95.2722 110.875 95.2778 110.867C95.3222 110.793 95.3639 110.719 95.4028 110.642L114.174 73.6139C114.199 73.5639 114.224 73.5125 114.246 73.4625C114.25 73.4542 114.253 73.4459 114.256 73.4389C114.278 73.3875 114.299 73.3361 114.318 73.2861C114.326 73.2639 114.336 73.2417 114.344 73.2195C114.371 73.1472 114.394 73.0736 114.415 73.0014C114.418 72.9903 114.421 72.9792 114.424 72.9667C114.44 72.9056 114.456 72.8445 114.468 72.7834C114.474 72.7584 114.478 72.7334 114.482 72.7084C114.49 72.6611 114.499 72.6139 114.506 72.5681C114.51 72.5403 114.513 72.5125 114.515 72.4834C114.519 72.4403 114.524 72.3959 114.526 72.3528C114.528 72.3236 114.529 72.2959 114.531 72.2667C114.532 72.2236 114.532 72.182 114.532 72.1403C114.526 72.1167 114.526 72.0889 114.525 72.0611Z" fill="#EB5017"/>
<path d="M91.8903 113.05L88.832 108.879L89.4181 108.856C89.4931 108.853 89.5681 108.846 89.6431 108.838C89.6556 108.836 89.6667 108.835 89.6792 108.832L89.7167 108.826C89.7667 108.819 89.8167 108.813 89.8667 108.803C89.8861 108.799 89.9042 108.794 89.9222 108.792L89.9528 108.785C89.9972 108.775 90.0431 108.765 90.0875 108.754C90.1125 108.747 90.1375 108.74 90.1611 108.733L90.1778 108.728C90.2209 108.715 90.2653 108.703 90.3084 108.688C90.3361 108.678 90.3639 108.668 90.3917 108.658C90.4347 108.643 90.4792 108.626 90.5222 108.608C90.5528 108.596 90.5778 108.586 90.6028 108.575C90.6222 108.567 90.6417 108.557 90.6611 108.547L90.6889 108.535C90.7611 108.501 90.8306 108.465 90.9 108.426L90.9681 108.389C91.0584 108.336 91.1347 108.289 91.2042 108.24C91.2722 108.193 91.3431 108.142 91.4181 108.081C91.432 108.069 91.4445 108.058 91.457 108.047L91.4861 108.022C91.5306 107.985 91.5764 107.946 91.6195 107.906C91.6403 107.886 91.6611 107.865 91.682 107.844C91.732 107.796 91.7709 107.756 91.8097 107.714C91.832 107.69 91.8542 107.665 91.8764 107.64C91.9195 107.592 91.9597 107.543 91.9986 107.492L92.0209 107.464C92.0306 107.451 92.0403 107.439 92.05 107.426C92.1111 107.346 92.1667 107.264 92.2153 107.183C92.2542 107.121 92.2903 107.058 92.325 106.994L92.3306 106.982C92.3667 106.914 92.4 106.846 92.4292 106.776L92.6459 106.279L92.7597 106.435L111.278 69.9139C111.306 69.8597 111.329 69.807 111.353 69.7528C111.374 69.7056 111.392 69.6597 111.41 69.6125L111.433 69.5542C111.457 69.4875 111.479 69.4209 111.499 69.3556L111.507 69.3236C111.522 69.2695 111.536 69.2139 111.547 69.1597C111.55 69.1472 111.551 69.1347 111.554 69.1222L111.56 69.0917C111.568 69.0486 111.575 69.007 111.581 68.9653C111.583 68.9459 111.585 68.9264 111.588 68.9056L111.589 68.8903C111.593 68.8514 111.597 68.8125 111.599 68.7736C111.6 68.7486 111.601 68.7236 111.601 68.6972C111.603 68.6584 111.603 68.6209 111.603 68.5834C111.603 68.5597 111.603 68.5347 111.601 68.5097C111.6 68.4709 111.597 68.4334 111.593 68.3959L111.59 68.3695C111.589 68.3556 111.588 68.3417 111.586 68.3278C111.581 68.2861 111.574 68.2445 111.567 68.2028L111.558 68.15C111.55 68.1056 111.539 68.0625 111.528 68.0195L111.521 67.9931C111.504 67.932 111.488 67.8778 111.468 67.8264L111.464 67.8167C111.436 67.7389 111.403 67.6639 111.364 67.5847L111.354 67.5639C111.318 67.4945 111.281 67.4306 111.239 67.3667C111.218 67.3347 111.197 67.3028 111.175 67.2722L111.172 67.2695L111.676 66.9L114.289 70.4625C114.314 70.4959 114.338 70.5292 114.36 70.5639L114.379 70.5959C114.425 70.6667 114.471 70.7417 114.511 70.8195L114.522 70.8403C114.528 70.8514 114.533 70.8625 114.538 70.875C114.585 70.9695 114.624 71.0598 114.657 71.1486L114.671 71.1834C114.694 71.2514 114.715 71.3153 114.733 71.3792C114.736 71.3903 114.739 71.4028 114.742 71.4153C114.758 71.4778 114.771 71.5334 114.782 71.5889L114.785 71.6042C114.788 71.6153 114.789 71.6292 114.792 71.6445C114.803 71.7084 114.811 71.7597 114.818 71.8139C114.821 71.8361 114.822 71.8584 114.825 71.8806L114.826 71.8986C114.831 71.9459 114.835 71.9931 114.836 72.0417C114.838 72.0722 114.838 72.1028 114.839 72.1334C114.84 72.1806 114.839 72.2278 114.838 72.275C114.836 72.3056 114.835 72.3375 114.833 72.3695C114.831 72.4167 114.826 72.4653 114.821 72.5139L114.819 72.5278C114.817 72.5542 114.814 72.5806 114.81 72.607C114.803 72.6584 114.794 72.7097 114.785 72.7611L114.781 72.7847C114.778 72.8042 114.774 72.825 114.769 72.8445C114.756 72.9111 114.739 72.9792 114.721 73.0459C114.717 73.0625 114.714 73.0736 114.711 73.0848C114.689 73.1639 114.663 73.2431 114.633 73.3222C114.626 73.3389 114.621 73.357 114.614 73.3736L114.606 73.3959C114.585 73.4514 114.563 73.507 114.538 73.5625C114.535 73.5709 114.531 73.5792 114.526 73.5889C114.501 73.6445 114.475 73.6986 114.447 73.7542L95.6778 110.786C95.6389 110.861 95.5945 110.942 95.5417 111.031C95.5375 111.039 95.532 111.049 95.5264 111.058C95.5195 111.071 95.5111 111.081 95.5042 111.092C95.4417 111.192 95.3806 111.282 95.3167 111.368L95.3097 111.378L95.3139 111.383L95.1528 111.574L94.907 111.863L94.8959 111.849C94.8889 111.856 94.882 111.863 94.875 111.869L94.8209 111.921C94.7972 111.943 94.7736 111.963 94.75 111.983L94.682 112.043C94.6542 112.068 94.6264 112.093 94.5972 112.117L94.575 112.133C94.5472 112.156 94.5125 112.181 94.4778 112.206L94.407 112.258C94.3806 112.279 94.3528 112.3 94.325 112.319L94.3014 112.335C94.2459 112.374 94.1792 112.413 94.1139 112.453L94.0834 112.472C94.0695 112.482 94.0542 112.49 94.0389 112.5L94.0486 112.513L93.725 112.664C93.7195 112.667 93.7139 112.669 93.7084 112.672L93.4806 112.778L93.475 112.771C93.4445 112.782 93.4125 112.794 93.3792 112.807L93.2806 112.842C93.2584 112.85 93.2375 112.857 93.2153 112.864C93.1681 112.879 93.1195 112.892 93.0722 112.904L93.0139 112.917C92.9959 112.922 92.9778 112.926 92.9597 112.932C92.8472 112.96 92.732 112.982 92.6181 113C92.5986 113.003 92.5806 113.006 92.5611 113.007L92.5375 113.01C92.4459 113.022 92.3542 113.031 92.2667 113.035C92.2459 113.038 92.2292 113.039 92.2125 113.04C92.1695 113.042 92.1278 113.043 92.0861 113.043H92.057H92.0514L91.8903 113.05ZM90 109.414L92.2 112.413C92.2111 112.411 92.2209 112.41 92.232 112.41C92.307 112.406 92.3834 112.399 92.4584 112.389L92.525 112.381C92.6209 112.367 92.7167 112.347 92.8111 112.324L92.9153 112.296C92.9528 112.286 92.9917 112.276 93.0278 112.264C93.0417 112.26 93.0556 112.254 93.0695 112.25L93.1667 112.215C93.2625 112.181 93.3403 112.149 93.4111 112.117C93.4084 112.117 93.4181 112.113 93.4264 112.108L93.45 112.099C93.5334 112.06 93.6195 112.015 93.7056 111.967L93.7181 111.96C93.7264 111.956 93.7334 111.95 93.7417 111.944C93.7556 111.935 93.7709 111.926 93.7847 111.917C93.8459 111.881 93.9014 111.846 93.9556 111.81L93.9778 111.796C93.9875 111.789 94.007 111.774 94.025 111.76L94.1084 111.699C94.1347 111.679 94.1611 111.66 94.1875 111.639L94.2084 111.624C94.2222 111.613 94.2417 111.594 94.2625 111.576L94.3472 111.503C94.3625 111.49 94.3792 111.476 94.3931 111.463L94.4514 111.406C94.4625 111.393 94.4736 111.382 94.4847 111.369L94.5125 111.342C94.5472 111.307 94.582 111.274 94.6139 111.238C94.6292 111.218 94.6375 111.208 94.6459 111.199C94.6556 111.188 94.6639 111.178 94.6736 111.169L94.9111 111.368L94.6764 111.168L94.7028 111.138C94.7306 111.104 94.757 111.069 94.782 111.036C94.7917 111.024 94.7972 111.017 94.8028 111.01L94.8111 110.999C94.8639 110.929 94.9167 110.85 94.9736 110.76C94.9792 110.75 94.9861 110.74 94.9931 110.731C94.9931 110.729 94.9986 110.719 95.0042 110.711C95.0445 110.644 95.0834 110.576 95.1181 110.507L113.889 73.4806C113.913 73.4347 113.935 73.3875 113.956 73.3417C113.957 73.3361 113.961 73.3278 113.965 73.3181C113.985 73.2736 114.004 73.2264 114.021 73.1806L114.044 73.1209C114.068 73.0556 114.09 72.9889 114.108 72.9236L114.117 72.8931C114.132 72.8375 114.146 72.7834 114.157 72.7278L114.169 72.6598C114.176 72.6181 114.185 72.575 114.19 72.5334C114.193 72.5139 114.194 72.4945 114.197 72.4736L114.199 72.4584C114.203 72.4195 114.207 72.3806 114.208 72.3417C114.21 72.3167 114.211 72.2917 114.211 72.2653C114.213 72.2264 114.213 72.1889 114.213 72.1514C114.213 72.1264 114.213 72.1028 114.211 72.0778C114.21 72.0389 114.207 72.0014 114.203 71.9639L114.201 71.9417C114.2 71.9264 114.199 71.9111 114.197 71.8959C114.192 71.8542 114.185 71.8125 114.178 71.7709L114.171 71.7278C114.169 71.7236 114.169 71.7181 114.168 71.7139C114.16 71.675 114.15 71.6306 114.138 71.5875L114.131 71.5597C114.115 71.5014 114.099 71.4486 114.079 71.3972C114.078 71.3931 114.075 71.3875 114.074 71.382C114.046 71.307 114.014 71.232 113.974 71.1514L113.96 71.1222C113.928 71.0597 113.892 70.9986 113.849 70.9334L113.831 70.9042C113.819 70.8889 113.801 70.8625 113.782 70.8361L112.222 68.7084C112.222 68.7111 112.222 68.7153 112.222 68.7181C112.221 68.7486 112.219 68.7806 112.218 68.8125C112.215 68.8611 112.211 68.9084 112.206 68.957L112.204 68.9709C112.201 68.9972 112.199 69.0236 112.196 69.0486C112.189 69.1 112.179 69.1528 112.171 69.2042L112.167 69.2278C112.164 69.2472 112.16 69.2681 112.156 69.2875C112.142 69.3542 112.125 69.4222 112.107 69.4889L112.097 69.525C112.074 69.6056 112.049 69.6861 112.019 69.7653C112.014 69.782 112.007 69.7986 112 69.8153L111.992 69.8361C111.969 69.8917 111.949 69.9472 111.924 70.0028C111.896 70.0667 111.867 70.1306 111.833 70.1945L92.857 107.625L92.7584 107.49C92.7542 107.497 92.75 107.504 92.7445 107.513C92.6847 107.608 92.6195 107.706 92.5486 107.801C92.5347 107.819 92.5209 107.838 92.5056 107.856L92.4875 107.878C92.4403 107.938 92.3931 107.996 92.3445 108.051C92.3195 108.081 92.2931 108.11 92.2653 108.139C92.2195 108.188 92.1736 108.235 92.1264 108.282C92.0931 108.315 92.0681 108.34 92.0417 108.364C91.9917 108.411 91.9389 108.456 91.8861 108.5L91.8625 108.519C91.8445 108.535 91.825 108.551 91.807 108.567C91.7195 108.638 91.6361 108.699 91.5556 108.754C91.4736 108.811 91.3834 108.868 91.2792 108.928C91.2611 108.939 91.2417 108.949 91.2236 108.958L91.2 108.971C91.1195 109.015 91.0361 109.058 90.9514 109.097L90.9264 109.108C90.9014 109.121 90.875 109.132 90.85 109.144C90.8209 109.157 90.7917 109.169 90.7625 109.182C90.7056 109.206 90.6542 109.225 90.6014 109.244C90.5695 109.256 90.5361 109.268 90.5042 109.278C90.4528 109.294 90.4014 109.31 90.35 109.325L90.3334 109.329C90.3028 109.338 90.2722 109.347 90.2417 109.354C90.1889 109.368 90.1347 109.379 90.0806 109.392L90.0542 109.397C90.0389 109.407 90.0195 109.411 90 109.414ZM114.674 71.1931V71.1945C114.674 71.1931 114.674 71.1931 114.674 71.1931ZM114.667 71.175C114.668 71.1792 114.669 71.182 114.671 71.1861C114.669 71.182 114.668 71.1778 114.667 71.175Z" fill="#FFECE5"/>
<path d="M109.194 66.0292C111.36 66.0292 112.561 68.0764 111.557 70.0556L92.7861 107.083C92.1541 108.329 90.8083 109.169 89.4444 109.168C90.818 109.111 92.1513 108.199 92.7166 106.906L106.472 75.4514C107.321 73.5111 106.108 71.6042 104.024 71.6042H101.099L101.987 66.0292H109.194Z" fill="#F77A4A"/>
<path d="M89.4472 109.481C89.4458 109.481 89.4444 109.481 89.443 109.481L89.4305 108.856C90.6847 108.804 91.918 107.951 92.4291 106.781L106.185 75.3264C106.551 74.4875 106.51 73.6195 106.068 72.9459C105.64 72.2931 104.896 71.9181 104.022 71.9181H100.732L101.721 65.7181H109.193C110.315 65.7181 111.267 66.2195 111.804 67.0959C112.354 67.9917 112.365 69.1528 111.835 70.1986L93.0639 107.224C92.3791 108.574 90.9264 109.481 89.4472 109.481ZM101.467 71.2917H104.025C105.112 71.2917 106.049 71.7695 106.593 72.6028C107.151 73.457 107.212 74.5403 106.758 75.5764L96.4041 99.2528L111.278 69.9139C111.717 69.05 111.714 68.1403 111.272 67.4209C110.851 66.7347 110.094 66.3417 109.194 66.3417H102.256L101.467 71.2917Z" fill="#FFECE5"/>
<path d="M109.354 77.6152C109.351 77.568 109.349 77.5208 109.343 77.4736C109.34 77.45 109.338 77.4263 109.335 77.4027C109.329 77.3611 109.324 77.3194 109.315 77.2777C109.313 77.2652 109.313 77.2527 109.31 77.2402C109.307 77.2277 109.304 77.2166 109.301 77.2041C109.293 77.1666 109.285 77.1277 109.275 77.0902C109.27 77.0666 109.263 77.043 109.257 77.0194C109.246 76.9805 109.233 76.9416 109.219 76.9027C109.214 76.8875 109.21 76.8708 109.204 76.8555C109.203 76.8527 109.201 76.85 109.2 76.8458C109.167 76.7555 109.129 76.6694 109.086 76.5847C109.082 76.5777 109.081 76.5694 109.076 76.5625C109.074 76.5569 109.07 76.5527 109.067 76.5472C109.028 76.4736 108.986 76.4027 108.942 76.3347C108.938 76.3291 108.935 76.3236 108.932 76.318C108.911 76.2875 108.89 76.2583 108.869 76.2291L106.257 72.6666C106.282 72.7013 106.306 72.7375 106.329 72.7736C106.374 72.843 106.417 72.9138 106.454 72.9861C106.461 72.9986 106.467 73.0111 106.474 73.0236C106.517 73.1083 106.554 73.1958 106.588 73.2847C106.594 73.3041 106.6 73.3222 106.607 73.3416C106.619 73.3805 106.633 73.4194 106.645 73.4583C106.651 73.4819 106.657 73.5055 106.663 73.5291C106.672 73.5666 106.681 73.6041 106.689 73.643C106.694 73.668 106.699 73.6916 106.703 73.7166C106.71 73.7583 106.717 73.8 106.722 73.8416C106.725 73.8652 106.729 73.8888 106.731 73.9125C106.735 73.9597 106.739 74.0069 106.74 74.0541C106.742 74.0736 106.743 74.093 106.743 74.1125C106.744 74.1791 106.744 74.2472 106.742 74.3152C106.742 74.3263 106.74 74.3375 106.739 74.35C106.736 74.4069 106.732 74.4638 106.725 74.5222C106.722 74.5458 106.718 74.5694 106.715 74.593C106.708 74.6388 106.701 74.6861 106.693 74.7319C106.689 74.7583 106.683 74.7847 106.678 74.8111C106.668 74.8555 106.657 74.9013 106.646 74.9472C106.639 74.9736 106.632 75 106.625 75.0263C106.611 75.075 106.596 75.1236 106.579 75.1722C106.571 75.1944 106.564 75.218 106.556 75.2402C106.531 75.3111 106.501 75.3833 106.471 75.4541L92.7153 106.908C92.682 106.985 92.6459 107.058 92.607 107.132C92.6042 107.137 92.6014 107.142 92.6001 107.147C92.5625 107.218 92.5223 107.286 92.4806 107.354C92.4237 107.446 92.3639 107.533 92.3001 107.619C92.282 107.644 92.2626 107.667 92.2445 107.69C92.2014 107.744 92.1584 107.799 92.1126 107.851C92.0889 107.879 92.0639 107.906 92.0389 107.932C91.9973 107.976 91.9542 108.021 91.9098 108.064C91.8834 108.089 91.8584 108.115 91.832 108.139C91.7848 108.182 91.7362 108.224 91.6876 108.265C91.6626 108.286 91.6389 108.307 91.6139 108.328C91.5389 108.389 91.4612 108.447 91.3806 108.501C91.2973 108.558 91.2112 108.611 91.1237 108.662C91.1001 108.676 91.0751 108.689 91.0501 108.703C90.9751 108.744 90.8987 108.783 90.8209 108.819C90.7903 108.835 90.7584 108.849 90.7278 108.862C90.6987 108.875 90.6695 108.887 90.6403 108.899C90.5931 108.918 90.5459 108.936 90.4987 108.953C90.4681 108.964 90.4389 108.974 90.4084 108.985C90.3612 109 90.3139 109.015 90.2667 109.028C90.2334 109.037 90.2014 109.047 90.1681 109.056C90.1195 109.068 90.0695 109.079 90.0195 109.09C89.9876 109.097 89.9556 109.104 89.9251 109.111C89.8709 109.121 89.8153 109.129 89.7598 109.136C89.7334 109.14 89.7056 109.144 89.6792 109.147C89.5973 109.157 89.5139 109.164 89.432 109.167L42.5723 109.169C41.6264 109.169 40.8237 108.765 40.3403 108.107L42.9528 111.669C43.4362 112.328 44.2389 112.732 45.1848 112.732L92.0445 112.729C92.1278 112.726 92.2098 112.719 92.2917 112.71C92.3195 112.707 92.3459 112.701 92.3723 112.699C92.4278 112.692 92.482 112.683 92.5362 112.674C92.5681 112.668 92.6001 112.66 92.632 112.653C92.682 112.642 92.7306 112.632 92.7792 112.618C92.8126 112.61 92.8459 112.6 92.8792 112.59C92.9084 112.582 92.9376 112.575 92.9667 112.565C92.9848 112.56 93.0028 112.553 93.0209 112.547C93.0514 112.537 93.0806 112.526 93.1112 112.515C93.1584 112.499 93.2056 112.479 93.2528 112.461C93.282 112.449 93.3112 112.437 93.3403 112.425C93.3556 112.418 93.3709 112.412 93.3848 112.407C93.4014 112.4 93.4167 112.39 93.4334 112.382C93.5112 112.346 93.5876 112.307 93.6626 112.265C93.6792 112.257 93.6959 112.25 93.7112 112.24C93.7195 112.235 93.7278 112.229 93.7362 112.225C93.907 112.126 94.0709 112.014 94.2251 111.89C94.2306 111.886 94.2376 111.882 94.2431 111.876C94.2626 111.861 94.2792 111.843 94.2987 111.828C94.3473 111.786 94.3959 111.744 94.4431 111.701C94.4528 111.692 94.4639 111.683 94.4751 111.674C94.4917 111.658 94.5056 111.642 94.5223 111.625C94.5667 111.582 94.6098 111.537 94.6514 111.493C94.6653 111.478 94.6792 111.465 94.6931 111.45C94.7042 111.437 94.7139 111.425 94.7251 111.412C94.7709 111.36 94.8139 111.307 94.857 111.251C94.8709 111.233 94.8862 111.217 94.9001 111.199C94.9042 111.193 94.9084 111.186 94.9139 111.179C94.9778 111.093 95.0389 111.004 95.0945 110.914C95.0973 110.91 95.1014 110.906 95.1042 110.9C95.1431 110.836 95.1792 110.772 95.2139 110.707C95.2167 110.701 95.2195 110.696 95.2223 110.69C95.2528 110.631 95.2834 110.571 95.3112 110.51C95.3181 110.496 95.3237 110.481 95.3306 110.467L109.086 79.0125C109.117 78.9416 109.145 78.8694 109.171 78.7986C109.179 78.775 109.186 78.7527 109.195 78.7305C109.211 78.6819 109.226 78.6333 109.24 78.5847C109.247 78.5583 109.254 78.5319 109.261 78.5055C109.272 78.4597 109.283 78.4152 109.293 78.3694C109.299 78.343 109.304 78.3166 109.308 78.2902C109.317 78.2444 109.324 78.1972 109.331 78.1513C109.333 78.1277 109.338 78.1041 109.34 78.0805C109.347 78.0222 109.351 77.9652 109.354 77.9083C109.354 77.8972 109.356 77.8861 109.357 77.8736C109.36 77.8055 109.36 77.7375 109.358 77.6708C109.357 77.6541 109.356 77.6347 109.354 77.6152Z" fill="#FA9874"/>
<path d="M45.1848 113.046C44.1611 113.046 43.2556 112.612 42.7014 111.856L40.0889 108.293L40.5931 107.924L40.5959 107.928C41.032 108.519 41.7514 108.858 42.5723 108.858L89.432 108.856C89.4945 108.853 89.5695 108.846 89.6445 108.837C89.657 108.836 89.6681 108.835 89.6806 108.832L89.7181 108.826C89.7681 108.819 89.8181 108.812 89.8681 108.803C89.8875 108.799 89.9056 108.794 89.9237 108.792L89.9542 108.785C89.9986 108.775 90.0445 108.765 90.0889 108.754C90.1139 108.747 90.1389 108.74 90.1625 108.733L90.1792 108.728C90.2223 108.715 90.2667 108.703 90.3098 108.687C90.3375 108.678 90.3653 108.668 90.3931 108.658C90.4362 108.643 90.4806 108.626 90.5237 108.608C90.5542 108.596 90.5792 108.586 90.6042 108.575C90.6236 108.567 90.6431 108.557 90.6625 108.547L90.6903 108.535C90.7625 108.501 90.832 108.465 90.9014 108.426L90.9695 108.389C91.0598 108.336 91.1362 108.289 91.2056 108.24C91.2737 108.193 91.3445 108.142 91.4195 108.081C91.4334 108.069 91.4459 108.058 91.4584 108.047L91.4875 108.022C91.532 107.985 91.5778 107.946 91.6209 107.906C91.6417 107.886 91.6625 107.865 91.6834 107.844C91.7334 107.796 91.7723 107.756 91.8111 107.714C91.8334 107.69 91.8556 107.665 91.8778 107.64C91.9209 107.592 91.9612 107.543 92 107.492L92.0223 107.464C92.032 107.451 92.0417 107.439 92.0514 107.426C92.1125 107.346 92.1681 107.264 92.2167 107.183C92.2556 107.121 92.2917 107.058 92.3264 106.994L92.332 106.982C92.3681 106.914 92.4014 106.846 92.4306 106.776L106.186 75.3222C106.214 75.2569 106.24 75.193 106.263 75.1278L106.283 75.0652C106.299 75.0222 106.313 74.9778 106.325 74.9333C106.332 74.9111 106.338 74.8889 106.343 74.8666C106.356 74.8208 106.365 74.7805 106.374 74.7403C106.379 74.7166 106.383 74.693 106.388 74.6694C106.396 74.6278 106.401 74.5861 106.407 74.5444L106.415 74.4805C106.421 74.4291 106.425 74.3778 106.428 74.3264L106.429 74.3C106.432 74.2347 106.432 74.175 106.431 74.1153L106.428 74.0639C106.425 74.0222 106.424 73.9805 106.418 73.9389C106.417 73.9236 106.414 73.9083 106.413 73.893L106.41 73.8764C106.406 73.8389 106.4 73.8028 106.393 73.7666C106.389 73.7444 106.385 73.7236 106.381 73.7014C106.374 73.668 106.365 73.6347 106.357 73.6014L106.34 73.5389C106.331 73.5041 106.319 73.4708 106.307 73.4361L106.29 73.3861C106.263 73.3111 106.231 73.2361 106.19 73.1569L106.174 73.1236C106.14 73.0597 106.104 72.9972 106.064 72.9375C106.043 72.9055 106.024 72.875 106.001 72.8458L106 72.8444L106.504 72.475C106.504 72.4764 106.506 72.4764 106.506 72.4778L109.117 76.0375C109.14 76.0708 109.164 76.1041 109.188 76.1375L109.203 76.1639C109.25 76.2375 109.294 76.3125 109.335 76.3889C109.339 76.3972 109.344 76.4041 109.349 76.4125L109.364 76.4458C109.411 76.5402 109.45 76.6305 109.483 76.7208L109.49 76.7361C109.497 76.7569 109.503 76.7708 109.507 76.7847C109.525 76.8389 109.539 76.8833 109.551 76.9278C109.558 76.9528 109.565 76.9778 109.571 77.0028C109.582 77.0486 109.593 77.0916 109.601 77.1333C109.606 77.15 109.608 77.1611 109.611 77.1736C109.614 77.1861 109.615 77.1986 109.617 77.2111C109.626 77.2625 109.633 77.3097 109.639 77.3569C109.643 77.3902 109.646 77.4139 109.649 77.4375C109.654 77.4889 109.657 77.5416 109.66 77.5944L109.661 77.6125C109.663 77.6278 109.663 77.643 109.664 77.6597C109.667 77.7333 109.665 77.8083 109.663 77.8847L109.66 77.9166C109.656 77.9861 109.651 78.05 109.643 78.1125C109.64 78.1305 109.639 78.1486 109.636 78.1666L109.633 78.1889C109.626 78.2403 109.618 78.2916 109.608 78.343C109.603 78.3722 109.597 78.4 109.59 78.4291C109.579 78.4791 109.568 78.5278 109.556 78.5778C109.547 78.6125 109.54 78.6389 109.532 78.6653C109.517 78.718 109.5 78.7708 109.482 78.825L109.476 78.8444C109.471 78.8639 109.464 78.8819 109.457 78.9014C109.429 78.9791 109.399 79.0555 109.365 79.1333L95.5875 110.636C95.5584 110.701 95.525 110.767 95.4917 110.831L95.4834 110.849C95.4459 110.919 95.4056 110.99 95.3639 111.058L95.35 111.079C95.2903 111.175 95.2264 111.269 95.157 111.361C95.1556 111.364 95.15 111.372 95.1431 111.382C95.132 111.397 95.1195 111.411 95.1084 111.425L95.0973 111.439C95.05 111.499 95.0028 111.557 94.9542 111.612C94.9403 111.631 94.9306 111.642 94.9209 111.653C94.9098 111.665 94.8973 111.678 94.8862 111.689L94.875 111.7C94.8306 111.749 94.7834 111.796 94.7361 111.843L94.7237 111.856C94.7112 111.869 94.6986 111.882 94.6848 111.894C94.675 111.904 94.6653 111.912 94.6556 111.921C94.6 111.971 94.5486 112.017 94.4959 112.061L94.4792 112.075C94.4653 112.087 94.45 112.101 94.4348 112.112L94.4125 112.131C94.2514 112.26 94.0737 112.382 93.8889 112.489C93.882 112.494 93.8723 112.5 93.8611 112.506C93.8473 112.514 93.832 112.521 93.8167 112.528C93.7278 112.576 93.6445 112.618 93.5612 112.658C93.5389 112.671 93.5237 112.678 93.5084 112.685C93.4973 112.69 93.4848 112.694 93.4723 112.7C93.4278 112.719 93.3973 112.732 93.3653 112.744C93.3153 112.765 93.2639 112.785 93.2125 112.803C93.1806 112.814 93.1473 112.826 93.1153 112.837L93.0987 112.843C93.0848 112.849 93.0709 112.853 93.057 112.857C93.0362 112.864 93.0139 112.869 92.9917 112.876L92.9459 112.889C92.9153 112.897 92.8848 112.907 92.8542 112.914C92.8014 112.928 92.7473 112.939 92.6945 112.951L92.6681 112.957C92.6431 112.962 92.6167 112.968 92.5903 112.974C92.5306 112.985 92.4709 112.993 92.4111 113.001L92.3848 113.006C92.3639 113.008 92.3431 113.012 92.3236 113.014C92.2292 113.025 92.1403 113.032 92.0528 113.035L45.1848 113.046ZM41.6431 109.356L43.2056 111.485C43.6417 112.079 44.3625 112.419 45.1848 112.419L92.0445 112.417C92.107 112.414 92.182 112.407 92.257 112.399C92.2695 112.397 92.282 112.396 92.2931 112.393L92.3306 112.387C92.3806 112.381 92.4306 112.374 92.4806 112.364C92.5 112.36 92.5181 112.356 92.5375 112.351L92.5681 112.344C92.6125 112.335 92.6584 112.325 92.7028 112.314C92.7278 112.307 92.7528 112.3 92.7764 112.293L92.8334 112.276C92.8473 112.272 92.8598 112.269 92.8736 112.265L92.9236 112.247C92.95 112.239 92.9778 112.228 93.0056 112.218C93.0487 112.203 93.0931 112.186 93.1362 112.168C93.1639 112.157 93.1903 112.146 93.2167 112.135L93.2653 112.114C93.2778 112.107 93.2903 112.101 93.3028 112.094C93.375 112.061 93.4445 112.025 93.5139 111.986C93.5264 111.979 93.5389 111.974 93.5514 111.967C93.5639 111.96 93.5723 111.954 93.582 111.949C93.7403 111.857 93.8917 111.753 94.032 111.64L94.0667 111.612C94.0778 111.603 94.0889 111.593 94.1 111.583C94.1459 111.546 94.1903 111.507 94.2334 111.467C94.2417 111.458 94.25 111.451 94.2598 111.444L94.2764 111.428C94.2861 111.418 94.2959 111.408 94.3056 111.399C94.3473 111.358 94.3862 111.318 94.425 111.276C94.4348 111.267 94.4431 111.257 94.4528 111.247L94.4639 111.236C94.4764 111.221 94.4834 111.211 94.4917 111.201C94.5334 111.153 94.5736 111.104 94.6139 111.054C94.6223 111.043 94.632 111.032 94.6417 111.021L94.6528 111.007C94.6528 111.006 94.6584 110.997 94.6653 110.989C94.725 110.91 94.7806 110.828 94.8306 110.746L94.8431 110.728C94.8778 110.672 94.9098 110.615 94.9403 110.557L94.9473 110.542C94.975 110.487 95.0028 110.433 95.0278 110.378L95.0445 110.34L108.801 78.8847C108.829 78.8194 108.856 78.7541 108.878 78.6903L108.899 78.6291C108.914 78.5847 108.928 78.5403 108.94 78.4972C108.946 78.4764 108.951 78.4555 108.957 78.4333C108.969 78.3847 108.979 78.3444 108.988 78.3028C108.993 78.2791 108.997 78.2555 109.001 78.2319C109.01 78.1903 109.015 78.1486 109.021 78.1069L109.029 78.043C109.035 77.9916 109.039 77.9416 109.042 77.8903L109.043 77.8653C109.046 77.8 109.046 77.7389 109.044 77.6791L109.042 77.6278C109.039 77.5861 109.036 77.5444 109.032 77.5028C109.031 77.4847 109.028 77.468 109.025 77.4514C109.018 77.4028 109.013 77.3666 109.007 77.3291C109.006 77.3208 109.004 77.3097 109.003 77.2986L108.994 77.2625C108.988 77.2305 108.979 77.1972 108.971 77.1639C108.964 77.1389 108.96 77.1208 108.954 77.1014C108.944 77.0666 108.933 77.0319 108.921 76.9986L108.911 76.9666C108.908 76.9597 108.906 76.9528 108.903 76.9458C108.876 76.8736 108.844 76.8 108.804 76.7208L108.788 76.6875C108.754 76.625 108.718 76.5625 108.678 76.5014L108.664 76.4791C108.649 76.4555 108.632 76.4319 108.614 76.4083L107.054 74.2819C107.054 74.2958 107.053 74.3097 107.053 74.3222L107.05 74.3541C107.046 74.4236 107.042 74.4875 107.033 74.5514C107.031 74.5708 107.028 74.5916 107.025 74.6125L107.022 74.6305C107.015 74.6805 107.007 74.7319 106.999 74.7833C106.993 74.8125 106.988 74.8416 106.981 74.8708C106.969 74.9208 106.958 74.9708 106.946 75.0208C106.938 75.0528 106.931 75.0805 106.922 75.1069C106.907 75.1597 106.89 75.2125 106.872 75.2652L106.865 75.2875C106.86 75.3041 106.854 75.3222 106.847 75.3389C106.819 75.4166 106.789 75.4944 106.754 75.5722L92.9987 107.026C92.9639 107.104 92.9264 107.185 92.8806 107.269L92.8736 107.285C92.832 107.362 92.7889 107.437 92.7431 107.511C92.6834 107.607 92.6181 107.704 92.5473 107.8C92.5334 107.818 92.5195 107.836 92.5042 107.854L92.4862 107.876C92.4389 107.936 92.3917 107.994 92.3431 108.05C92.3181 108.079 92.2917 108.108 92.2639 108.137C92.2181 108.186 92.1723 108.233 92.125 108.281C92.0917 108.314 92.0667 108.339 92.0403 108.362C91.9903 108.41 91.9375 108.454 91.8848 108.499L91.8612 108.518C91.8431 108.533 91.8237 108.55 91.8056 108.565C91.7181 108.636 91.6348 108.697 91.5542 108.753C91.4723 108.81 91.382 108.867 91.2778 108.926C91.2598 108.937 91.2403 108.947 91.2223 108.957L91.1987 108.969C91.1181 109.014 91.0348 109.057 90.95 109.096L90.925 109.107C90.9 109.119 90.8736 109.131 90.8486 109.143C90.8195 109.156 90.7903 109.168 90.7611 109.181C90.7042 109.204 90.6528 109.224 90.6 109.243C90.5681 109.254 90.5348 109.267 90.5028 109.276C90.4514 109.293 90.4 109.308 90.3487 109.324L90.332 109.328C90.3014 109.336 90.2709 109.346 90.2403 109.353C90.1875 109.367 90.1334 109.378 90.0792 109.39L90.0528 109.396C90.0278 109.401 90.0014 109.407 89.9764 109.412C89.9167 109.424 89.857 109.432 89.7973 109.44L89.7709 109.444C89.75 109.447 89.7306 109.45 89.7098 109.453C89.6153 109.464 89.5264 109.471 89.4389 109.474L42.5667 109.476C42.2473 109.483 41.9361 109.439 41.6431 109.356Z" fill="#FFECE5"/>
<path d="M106.847 55.5167L104.235 51.9542L101.99 66.0278L101.1 71.6028H104.025C104.111 71.6028 104.197 71.6055 104.279 71.6125L104.603 69.5889V69.5875L106.847 55.5167Z" fill="#FCD2C2"/>
<path d="M104.543 71.95L104.254 71.9264C104.181 71.9208 104.103 71.9167 104.025 71.9167H100.733L104.043 51.1653L107.176 55.4361L104.933 69.5042L104.912 69.6403L104.543 71.95ZM101.467 71.2917H104.015L104.294 69.5417L106.518 55.5972L104.425 52.7431L102.318 65.9514L102.299 66.0792L101.467 71.2917Z" fill="#FFECE5"/>
<path d="M106.474 75.45L92.7181 106.904C92.1528 108.197 90.8194 109.111 89.4319 109.167L42.5722 109.169C41.1375 109.169 40.0319 108.239 39.8722 106.903L35.4917 69.875C35.2625 67.9347 37.0819 66.0292 39.1653 66.0292H56.1944C57.6292 66.0292 58.7375 66.957 58.8958 68.2931L59.0194 69.3389C59.1778 70.6764 60.2833 71.6056 61.7194 71.6056H104.026C104.112 71.6056 104.199 71.6083 104.281 71.6153C106.207 71.7625 107.286 73.5903 106.474 75.45Z" fill="#F56630"/>
<path d="M42.5708 109.483C40.9764 109.483 39.7389 108.437 39.5611 106.942L35.1806 69.9111C35.0667 68.9458 35.4125 67.9278 36.132 67.1194C36.925 66.2278 38.0306 65.7153 39.1653 65.7153H56.1945C57.7903 65.7153 59.0292 66.7597 59.2056 68.2556L59.3292 69.3014C59.4681 70.4736 60.45 71.2917 61.7181 71.2917H104.025C104.121 71.2917 104.214 71.2958 104.306 71.3028C105.311 71.3806 106.167 71.8875 106.651 72.6931C107.156 73.5306 107.194 74.5819 106.761 75.575L93.0056 107.029C92.3917 108.433 90.9611 109.418 89.4458 109.479L42.5708 109.483ZM39.1653 66.3417C38.2222 66.3417 37.2639 66.7875 36.5986 67.5347C35.9986 68.2097 35.7083 69.0486 35.8014 69.8375L40.182 106.868C40.3208 108.04 41.3028 108.858 42.5708 108.858L89.4306 108.856C90.6806 108.806 91.9181 107.951 92.4306 106.781L106.186 75.3264C106.538 74.5208 106.511 73.6792 106.114 73.0167C105.735 72.3861 105.058 71.9889 104.256 71.9278C104.181 71.9222 104.103 71.918 104.025 71.918H61.7181C60.1236 71.918 58.8861 70.8722 58.7083 69.3764L58.5847 68.3306C58.4458 67.1597 57.4625 66.3417 56.1945 66.3417H39.1653Z" fill="#FFECE5"/>
<path d="M101.1 71.9167H61.7181C60.1236 71.9167 58.8861 70.8722 58.707 69.3764L58.5847 68.3306C58.4459 67.1597 57.4625 66.3417 56.1945 66.3417H44.9903C44.8986 66.3417 44.8125 66.3014 44.7528 66.2319C44.6931 66.1625 44.6681 66.0708 44.682 65.9806L45.3056 62.0667C45.3292 61.9153 45.4611 61.8028 45.6139 61.8028H53.5056L55.9153 46.6917H48.1236C48.032 46.6917 47.9459 46.6514 47.8861 46.5819C47.8264 46.5125 47.8014 46.4208 47.8153 46.3305L49.2681 37.2181C49.2917 37.0667 49.4236 36.9542 49.5764 36.9542H91.35C91.4403 36.9542 91.525 36.993 91.5847 37.0611L91.8042 37.3111C91.8653 37.3806 91.8931 37.475 91.8778 37.5667L89.6347 51.6417H104.233C104.325 51.6417 104.411 51.6819 104.471 51.7514C104.531 51.8208 104.556 51.9125 104.542 52.0028L101.408 71.6528C101.385 71.8056 101.254 71.9167 101.1 71.9167ZM45.357 65.7167H56.1959C57.7903 65.7167 59.0292 66.7611 59.207 68.2569L59.3292 69.3028C59.4681 70.4736 60.4514 71.2917 61.7195 71.2917H100.833L103.868 52.2667H89.2695C89.1778 52.2667 89.0917 52.2264 89.032 52.1569C88.9723 52.0875 88.9473 51.9958 88.9611 51.9056L91.2389 37.6125L91.2098 37.5792H49.8445L48.4903 46.0667H56.282C56.3736 46.0667 56.4597 46.1069 56.5195 46.1764C56.5792 46.2458 56.6042 46.3375 56.5903 46.4278L54.0806 62.1639C54.057 62.3153 53.925 62.4278 53.7722 62.4278H45.8806L45.357 65.7167ZM86.075 67.9708H60.3861C60.082 67.9708 59.8014 67.8472 59.6167 67.6306C59.4347 67.4167 59.3597 67.1375 59.4056 66.8458C59.4972 66.2694 60.0347 65.8181 60.6292 65.8181H86.3181C86.6209 65.8181 86.9014 65.9417 87.0847 66.1569C87.2681 66.3708 87.3431 66.6514 87.2959 66.9444C87.2042 67.5194 86.6681 67.9708 86.075 67.9708ZM60.6292 66.4431C60.3445 66.4431 60.0667 66.6722 60.0236 66.9444C60.0056 67.0542 60.0306 67.1514 60.0931 67.225C60.1597 67.3028 60.2639 67.3458 60.3861 67.3458H86.075C86.3597 67.3458 86.6361 67.1167 86.6792 66.8458C86.6973 66.7361 86.6722 66.6361 86.6097 66.5625C86.5431 66.4847 86.4403 66.4431 86.3181 66.4431H60.6292ZM86.8917 62.8514H61.2014C60.8972 62.8514 60.6181 62.7278 60.4334 62.5111C60.25 62.2972 60.175 62.0181 60.2222 61.725C60.3139 61.15 60.8514 60.6986 61.4459 60.6986H87.1347C87.4389 60.6986 87.7181 60.8222 87.9028 61.0375C88.0848 61.2514 88.1597 61.5306 88.1139 61.8236C88.0209 62.4 87.4847 62.8514 86.8917 62.8514ZM61.4459 61.3236C61.1611 61.3236 60.8834 61.5528 60.8403 61.8236C60.8222 61.9347 60.8472 62.0319 60.9097 62.1056C60.9764 62.1833 61.0806 62.2264 61.2028 62.2264H86.8917C87.1764 62.2264 87.4528 61.9972 87.4959 61.725C87.5139 61.6139 87.4903 61.5167 87.4264 61.4431C87.3597 61.3653 87.257 61.3236 87.1347 61.3236H61.4459ZM87.7084 57.7292H62.0195C61.7153 57.7292 61.4347 57.6056 61.25 57.3889C61.0681 57.175 60.9931 56.8958 61.0389 56.6042C61.1306 56.0278 61.6681 55.5764 62.2625 55.5764H87.9514C88.2542 55.5764 88.5347 55.7 88.7181 55.9153C88.9014 56.1292 88.9764 56.4097 88.9292 56.7028C88.8375 57.2792 88.3014 57.7292 87.7084 57.7292ZM62.2625 56.2014C61.9778 56.2014 61.7 56.4306 61.657 56.7028C61.6389 56.8125 61.6639 56.9097 61.7264 56.9833C61.7931 57.0611 61.8972 57.1042 62.0195 57.1042H87.7084C87.9931 57.1042 88.2695 56.875 88.3125 56.6042C88.3306 56.4944 88.3056 56.3944 88.2431 56.3208C88.1764 56.2431 88.0736 56.2014 87.9514 56.2014H62.2625Z" fill="#FFECE5"/>
<path d="M39.7514 46.1264L37.1611 62.3681H53.9889L56.5792 46.1264H39.7514ZM54.1556 48.1597L52.2139 60.3333H39.5806L41.5222 48.1597H54.1556Z" fill="#FA9874"/>
<path d="M91.5723 37.5181L104.236 51.9542H89.2695L91.5723 37.5181Z" fill="#FA9874"/>
<path d="M104.236 52.2667H89.2695C89.1778 52.2667 89.0917 52.2264 89.032 52.157C88.9723 52.0875 88.9473 51.9958 88.9611 51.9056L91.2639 37.4695C91.2834 37.35 91.3695 37.2514 91.4861 37.2181C91.6028 37.1847 91.7278 37.2208 91.8084 37.3125L104.472 51.7486C104.553 51.8403 104.572 51.9722 104.522 52.0833C104.469 52.1958 104.358 52.2667 104.236 52.2667ZM89.6361 51.6417H103.546L91.775 38.225L89.6361 51.6417Z" fill="#FFECE5"/>
<path d="M88.6737 55.9542C88.4987 55.7486 88.2417 55.6361 87.9528 55.6361H62.2625C61.6973 55.6361 61.1848 56.0653 61.0987 56.6139C61.0542 56.8889 61.125 57.15 61.2959 57.3514C61.4695 57.5542 61.7334 57.6708 62.0195 57.6708H87.7084C88.2737 57.6708 88.7834 57.2417 88.8709 56.6944C88.9153 56.4181 88.8445 56.1556 88.6737 55.9542Z" fill="#F56630"/>
<path d="M87.1347 60.7583H61.4458C60.8806 60.7583 60.3694 61.1875 60.2819 61.7347C60.2375 62.0097 60.3083 62.2722 60.4792 62.4722C60.6528 62.675 60.9153 62.7916 61.2028 62.7916H86.8917C87.4569 62.7916 87.9667 62.3625 88.0542 61.8139C88.0986 61.5389 88.0278 61.2764 87.8569 61.0764C87.6847 60.8736 87.4208 60.7583 87.1347 60.7583Z" fill="#F56630"/>
<path d="M86.3181 65.8778H60.6292C60.0639 65.8778 59.5514 66.307 59.4653 66.8556C59.4208 67.1306 59.4917 67.3917 59.6625 67.5931C59.8361 67.7959 60.1 67.9125 60.3861 67.9125H86.075C86.6403 67.9125 87.15 67.4834 87.2375 66.9361C87.282 66.6611 87.2111 66.3986 87.0403 66.1973C86.8639 65.9903 86.6084 65.8778 86.3181 65.8778Z" fill="#F56630"/>
<path d="M115.318 54.1958L115.628 56.1305C115.814 57.2902 116.61 58.1986 117.756 58.5569L119.668 59.1527L117.565 59.7486C116.307 60.1069 115.221 61.0139 114.664 62.175L113.738 64.1097L113.426 62.175C113.24 61.0152 112.444 60.1069 111.299 59.7486L109.388 59.1527L111.489 58.5569C112.747 58.1986 113.833 57.2916 114.39 56.1305L115.318 54.1958Z" fill="#F56630"/>
<path d="M45.5959 35.0958L45.8334 36.5792C45.9764 37.468 46.5861 38.1653 47.4653 38.4389L48.932 38.8958L47.3195 39.3542C46.3542 39.6278 45.5223 40.3236 45.0945 41.2125L44.3834 42.6972L44.1459 41.2125C44.0028 40.3236 43.3917 39.6278 42.5139 39.3542L41.0486 38.8958L42.6598 38.4389C43.625 38.1653 44.457 37.468 44.8848 36.5792L45.5959 35.0958Z" fill="#F56630"/>
<path d="M102.997 100.579L103.129 101.407C103.21 101.901 103.55 102.29 104.039 102.443L104.856 102.699L103.958 102.954C103.419 103.107 102.956 103.496 102.718 103.99L102.322 104.818L102.19 103.99C102.11 103.496 101.771 103.107 101.282 102.954L100.465 102.699L101.364 102.443C101.903 102.29 102.365 101.901 102.603 101.407L102.997 100.579Z" fill="#F56630"/>
<path d="M34.5792 89.65L34.7111 90.4764C34.7903 90.9722 35.1306 91.3597 35.6209 91.5125L36.4375 91.768L35.5403 92.0236C35.0014 92.1764 34.5375 92.5652 34.3 93.0611L33.9042 93.8875L33.7722 93.0611C33.6945 92.5652 33.3528 92.1777 32.8639 92.0236L32.0472 91.768L32.9445 91.5125C33.4834 91.3611 33.9472 90.9722 34.1834 90.4764L34.5792 89.65Z" fill="#F56630"/>
</svg>
